<?xml version="1.0" encoding="utf-8"?>
<!-- Generator: Adobe Illustrator 21.0.2, SVG Export Plug-In . SVG Version: 6.00 Build 0)  -->
<svg version="1.1" id="Layer_1" xmlns="http://www.w3.org/2000/svg" xmlns:xlink="http://www.w3.org/1999/xlink" x="0px" y="0px"
	 viewBox="0 0 640 480" style="enable-background:new 0 0 640 480;" xml:space="preserve">
<style type="text/css">
	.st0{fill:#FFFF00;}
	.st1{fill:#FFFFFF;}
	.st2{fill:#FF0000;}
</style>
<g id="outout">
	<path class="st0" d="M186.6,226.8c-11.2,28.7-15.4,60.2-12.3,90.9c0.4,3.4,0.9,7,2.9,9.7c2.4,3.3,6.6,4.7,10.6,5.4
		c12.8,2.2,26.2-1.2,38.8,2c1.5,0.4,3.1,0.9,3.9,2.3c0.7,1.1,0.6,2.6,0.5,3.9c-0.8,9.1-1.6,18.3-0.2,27.3s5.3,18,12.4,23.7
		c6.7,5.3,16,7.2,24.2,4.9c8.2-2.3,15.2-8.7,18.2-16.7c5.2-14.1-1.7-29.4-3.1-44.4c-0.1-1.4-0.2-2.9,0.6-4c0.8-1.3,2.4-1.8,3.9-2.2
		c8.9-2.2,18.5-1.4,26.8,2.4c1.9,0.9,3.9,1.9,6,1.6c2.1-0.3,3.8-2,5.2-3.7c12.4-14.5,19.1-33.3,21.2-52.2c2-19-0.3-38.2-4.5-56.8
		l-12.6-13.5c0.1,7.6,8.8,13,16.3,12.1s13.9-6.2,18.9-12c1.8-2.1,3.5-4.2,4.5-6.8c1.1-2.7,1.3-5.7,1-8.6
		c-0.8-7.7-5.6-14.9-12.4-18.6c-6.8-3.7-15.4-3.8-22.4-0.3c6.4,0.1,12.9,0.3,19.3,0.4c3.9,0.1,7.8,0.2,11.5-1
		c9.8-3.1,14.9-13.6,18-23.4c3.5-11,5.5-23.9-1.2-33.4c-7-9.9-20.6-11.9-32.7-12.6c-9.2-0.5-18.4-0.8-27.6-0.8
		c6.8-12,2-28.2-8.1-37.5c-10.2-9.3-24.5-12.9-38.3-13.6c-6.8-0.4-13.8-0.1-20.3,2.2c-10.1,3.6-18.1,11.8-23.5,21
		c-5.4,9.3-8.5,19.7-11.6,30l-1.5,0.5c-5.9-3.1-11.8-6.2-17.7-9.3c-2.8-1.5-5.7-3-8.9-3.2c-3.9-0.2-7.7,1.6-11.1,3.6
		c-15.7,9.2-29.2,24.9-29.5,43.1c0,4,0.6,8.2,2.5,11.8c3.2,6.2,9.7,10.1,16.4,11.8c6.7,1.7,13.8,1.5,20.7,1.2
		c-7.7-2.5-16.4,1.7-21.1,8.2c-4.8,6.5-6.3,14.8-6.8,22.9c-0.6,10,1.3,21.7,10,26.8c9.9,5.8,22.5-0.7,31-8.5"/>
	<g>
		<path d="M183.2,225.9c-6.8,17.8-11.1,36.5-12.7,55.6c-0.8,9.9-0.9,20-0.2,29.9c0.5,7.4,0.6,16,7,20.9c6.7,5.1,16.5,5,24.5,4.8
			c4.6-0.1,9.3-0.4,14-0.2c2.8,0.1,5.5,0.3,8.2,0.9c3,0.6,3.7,1.1,3.5,4.2c-1.3,17.3-2.4,37.2,11,50.5c10.7,10.6,28.3,11.7,40.2,2.5
			c14.3-11.1,13.1-28.5,9.8-44.5c-0.9-4.4-3-10.2-2.6-14.7c0.2-2.5,1.1-2.7,3.5-3.2c2.5-0.5,5-0.7,7.6-0.7c4.8,0,9.6,1,14.1,2.8
			c3.5,1.4,6.8,3.2,10.7,1.9c6.6-2.3,11.7-11.9,14.9-17.6c4.2-7.4,7.3-15.3,9.5-23.5c5.5-20.7,4.7-42.4,1.1-63.4
			c-0.7-4.1-0.9-10.3-3.3-13.7c-0.9-1.3-2.3-2.4-3.3-3.6c-3.1-3.3-6.1-6.6-9.2-9.9c-2-2.1-6.2-0.6-6,2.5c0.8,9.7,9.8,16.1,19.2,15.6
			c10.7-0.6,21.5-10,26.3-19.1c5.1-9.7,1.1-22.4-6.6-29.5c-8.6-8-20.9-9.1-31.3-4.3c-3.3,1.5-1.5,6.5,1.8,6.5
			c13.9,0.3,31.7,4,42.2-7.5c8.7-9.5,13.3-25.3,13.3-38c-0.2-34.9-43.9-32.2-68.2-32.2c1,1.8,2,3.5,3,5.3
			c6.5-12.3,3.6-26.9-4.8-37.5c-9.4-11.8-24.6-16.8-39-18.4c-15.6-1.8-30.7,0.4-42.4,11.6c-12.1,11.6-17.2,28.1-21.9,43.7
			c0.8-0.8,1.6-1.6,2.4-2.4c-0.5,0.2-1,0.3-1.5,0.5c0.9,0.1,1.8,0.2,2.7,0.4c-7.4-3.9-14.7-8.4-22.4-11.5
			c-6.7-2.6-12.8-0.8-18.8,2.7c-10.6,6.2-20.4,15.3-26,26.3c-5.5,10.7-8.1,25.5-0.7,35.9c8.7,12.3,25,12.7,38.6,12.2
			c3.9-0.1,4.8-5.8,0.9-6.9c-25.4-6.9-34.5,25.9-31.9,44.8c1.3,9.7,6.5,19.4,16.8,21.7c11.1,2.4,21.8-4.2,29.7-11.2
			c3.4-3-1.6-8-4.9-4.9c-5.7,5.1-13.6,10.6-21.7,9.7c-8.9-1-12.4-9.9-13.1-17.7c-1.3-13.4,3.9-40.7,23.4-35.5
			c0.3-2.3,0.6-4.6,0.9-6.9c-10.6,0.4-23.1,0.9-31.2-7.2c-7.2-7.3-5.5-19.6-1.8-28.1c3.6-8.2,9.7-15.1,16.7-20.6
			c3.6-2.9,7.7-5.7,12-7.4c6.2-2.4,11.3,1.2,16.7,4c2.7,1.4,5.3,2.8,8,4.2c1.9,1,4.1,2.8,6.1,3.1c2.5,0.4,4.7-0.8,5.8-2.9
			c2.4-4.5,3.1-10.5,4.9-15.4c1.9-5.2,4.2-10.3,7.1-15.1c5-8.1,12.2-15.4,21.4-18.4c9.5-3.1,20.7-2.3,30.4-0.3
			c10.7,2.2,21.6,6.8,28.2,15.8c6,8.2,8.3,19.4,3.4,28.6c-1.2,2.3,0.3,5.3,3,5.3c13,0,26.7-0.4,39.4,2.1c12.3,2.5,21.7,9.6,21.8,23
			c0.1,10.7-3.7,24.3-10.8,32.5c-4.2,5-9.5,6.5-15.9,6.5c-7.3,0-14.5-0.3-21.8-0.4c0.6,2.2,1.2,4.3,1.8,6.5
			c7.5-3.5,16.6-2.5,22.8,3.2c5.4,5,9,14,5.5,21c-3,6.1-9.8,12.3-16.2,14.7c-6.1,2.3-15.7,0.1-16.3-7.6c-2,0.8-4,1.6-6,2.5
			c2.2,2.4,4.4,4.8,6.6,7.1c1.4,1.5,2.8,3,4.2,4.6c1.7,1.8,1.3,1.7,1.6,4c1.2,9.5,3.4,18.7,4,28.4c0.6,9.2,0.4,18.6-0.9,27.7
			c-2.4,16-8.2,32-18.6,44.6c-1.3,1.6-2.3,3-4.4,3.4c-2.3,0.4-4-0.8-6-1.6c-3.8-1.5-7.7-2.3-11.7-2.8c-5.7-0.6-15.4-0.9-20.1,3.3
			c-4.9,4.4-1.5,14.1-0.4,19.5c1.7,8.5,4.2,17.6,2.7,26.3c-3,16.4-21.7,25.4-36.1,16.4c-15.8-9.9-14.3-31.7-13.1-47.7
			c0.5-6.9-1.7-10.5-8.6-11.9c-8.5-1.8-17.3-0.9-25.9-0.9c-5.1,0-10.7,0.1-15.6-1.8c-5.5-2.1-6.2-7.2-6.7-12.4
			c-0.9-9.6-1.1-19.3-0.5-29c1.1-20.3,5.6-40.2,12.9-59.1C191.6,223.5,184.8,221.7,183.2,225.9L183.2,225.9z"/>
	</g>
</g>
<g>
	<path d="M272.2,72.6c-3.7,5.8-7.3,11.6-11,17.4c-1.4,2.2-2.8,4.5-3,7.1c-0.2,2.2,0.5,4.3,1.2,6.4c1.8,5.5,3.6,11,5.4,16.5
		c2.4,0.2,3.7-2.6,4.8-4.8c4.3-8.7,15.1-14.3,15.6-24c0.1-2.3-0.4-4.5-1-6.7c-1.7-6.8-3.9-13.5-6.6-20c-2.7,6.6-6.4,12.9-11,18.4
		L272.2,72.6z"/>
</g>
<g>
	<path class="st1" d="M223.9,165.4c-11.8-2.9-22.7-9.5-30.8-18.6c-1.2-1.4-2.4-3.3-1.4-4.9c0.4-0.5,0.9-0.9,1.5-1.3
		c7.5-4.6,15.6-8.9,24.4-9.7c11.4-1.1,23.1,4.3,29.8,13.6c1.9,2.7,3.5,5.8,3.3,9.1c-0.3,5.2-5,9.4-10,10.8
		c-5.1,1.4-10.4,0.6-15.6-0.2"/>
	<g>
		<path d="M224.9,162c-9.5-2.5-18.2-7-25.4-13.7c-0.5-0.4-4.6-3.9-4.5-4.6c0.1-1.1,5.9-3.5,6.9-4c5.1-2.7,10.6-4.9,16.4-5.3
			c9.3-0.7,18.7,3.3,24.7,10.3c3.8,4.4,6.1,10.4,0.6,14.4c-5,3.7-11.9,2.6-17.7,1.8c-4.4-0.7-6.3,6.1-1.9,6.7
			c7.4,1.1,15.5,2.2,22.3-1.9c5.1-3.1,8.5-8.6,7.6-14.6c-2.1-13.8-18.6-22.8-31.2-23.7c-7.7-0.6-15.2,1.8-22,5.1
			c-4.7,2.3-14,5.6-12.6,12.3c1.3,6,9.2,11.3,13.9,14.6c6.4,4.4,13.5,7.5,21,9.5C227.4,169.9,229.2,163.1,224.9,162L224.9,162z"/>
	</g>
</g>
<g>
	<path class="st1" d="M315.6,156.9c-7.7,0.7-15.6-0.7-22.6-4.1c-4.2-2-8.4-5.4-8.7-10c-0.3-4.9,3.9-8.7,8.1-11.3
		c9-5.5,19.6-8.2,30.2-8.4c8.2-0.1,17.5,1.9,21.8,8.9c2.2,3.7,2.7,8.4,1.2,12.4c-1.5,4-4.9,7.3-9,8.7c-7,2.3-15.4-0.8-21.6,3.1"/>
	<g>
		<path d="M315.6,153.4c-6.3,0.4-12.4-0.3-18.3-2.5c-5.1-2-12.5-6.3-7.7-12.4c3.4-4.4,9.9-7,15-8.7c5.8-2,11.9-3,18.1-3.1
			c9.1-0.1,25.3,4.8,19.4,17.4c-2.8,6-9,6.6-14.9,6.6c-4.9,0-9.5,0.2-13.9,2.6c-4,2.1-0.4,8.2,3.5,6c7.4-4,16.6,0.1,24.2-4.3
			c5.9-3.4,9.4-10.1,8.9-16.9c-1.2-15.3-18.2-19.2-30.8-18.3c-8.2,0.6-16.3,2.6-23.8,6.2c-6,2.9-13.1,7.3-14.3,14.4
			c-2.8,16.5,23.6,20.7,34.6,19.9C320,160.1,320.1,153.1,315.6,153.4L315.6,153.4z"/>
	</g>
</g>
<g>
	<g>
		<path d="M317.7,145.5c4.5,0,4.5-7,0-7C313.2,138.5,313.2,145.5,317.7,145.5L317.7,145.5z"/>
	</g>
</g>
<g>
	<g>
		<path d="M317.7,145.5c4.5,0,4.5-7,0-7C313.2,138.5,313.2,145.5,317.7,145.5L317.7,145.5z"/>
	</g>
</g>
<g>
	<g>
		<path d="M226.9,151.2c4.5,0,4.5-7,0-7C222.4,144.2,222.4,151.2,226.9,151.2L226.9,151.2z"/>
	</g>
</g>
<g>
	<g>
		<path d="M208.8,159.6c-1.5,5.1-3.9,9.7-7.1,13.9c-2.7,3.6,3.3,7.1,6,3.5c3.6-4.7,6.1-9.9,7.8-15.5
			C216.8,157.1,210.1,155.3,208.8,159.6L208.8,159.6z"/>
	</g>
</g>
<g>
	<g>
		<path d="M217.3,168.1c-2,5.2-4.5,10.1-7.6,14.7c-2.5,3.8,3.6,7.3,6,3.5c3.4-5.2,6.1-10.7,8.3-16.4
			C225.7,165.7,218.9,163.9,217.3,168.1L217.3,168.1z"/>
	</g>
</g>
<g>
	<g>
		<path d="M310.7,157.6c0,4.5,0,9,0,13.5c0,4.5,7,4.5,7,0c0-4.5,0-9,0-13.5C317.7,153.1,310.7,153.1,310.7,157.6L310.7,157.6z"/>
	</g>
</g>
<g>
	<g>
		<path d="M322.1,155.5c-0.4,4.1-0.1,8.2,0.7,12.3c0.8,4.4,7.6,2.5,6.7-1.9c-0.6-3.5-0.7-6.9-0.4-10.4
			C329.5,151,322.5,151.1,322.1,155.5L322.1,155.5z"/>
	</g>
</g>
<g>
	<path class="st2" d="M264.3,159.6c-20.9,18.2-27.7,47.5-31.4,75c-1.3,9.3-2.3,18.8-0.7,28.1c1.2,6.6,3.6,12.9,6.1,19.2
		c2.7,6.8,5.4,13.6,8.1,20.5c12-8.8,22-20.3,29-33.4c13.8-25.6,15.8-55.7,16.2-84.8c0.1-3.6,0.1-7.3-1.1-10.7
		c-2.9-8.7-12.1-13.4-20.5-17.2c-1.9-0.9-5.2-0.9-5.1,1.2"/>
	<g>
		<path d="M261.8,157.1c-18.1,16.1-26,39.8-30.2,63c-2.4,13.2-4.9,27.3-3.2,40.8c1.9,14.7,9.2,28.8,14.6,42.4
			c0.7,1.9,3.1,3.6,5.1,2.1c13.4-10,24.5-22.7,31.9-37.7c7.8-15.7,11.5-32.9,13.4-50.2c0.9-8.7,1.4-17.5,1.6-26.3
			c0.2-8.2,1.1-17.1-3.8-24.3c-3.7-5.3-26.4-23-29.6-10.4c-1.1,4.4,5.7,6.2,6.7,1.9c-0.4,1.6,1.2,1.5,2.5,2.1
			c1.3,0.6,2.6,1.2,3.8,1.9c2.6,1.4,5.2,2.9,7.4,4.9c5.8,5.1,6.2,11.4,6,18.7c-0.2,14.3-0.9,28.6-3.2,42.7
			c-4.7,27.9-17.2,53.5-40.3,70.7c1.7,0.7,3.4,1.4,5.1,2.1c-5-12.8-11.8-26-14.2-39.6c-2.2-13,0.5-27,2.8-39.8
			c4-22.1,11.2-44.5,28.4-59.9C270.1,159.1,265.2,154.1,261.8,157.1L261.8,157.1z"/>
	</g>
</g>
<g>
	<path class="st1" d="M275.6,167.1c-1,3-2.3,6-4.2,7.8c-1.9,1.8-4.5,2.3-6.5,0.5c-1.9-1.8-2.7-6.1-1.3-8.7l5.9-7.2L275.6,167.1z"/>
	<g>
		<path d="M271.5,166c-0.3,0.8-2.2,6.8-3.7,6.4c-0.7-0.2-0.5-2.1-0.7-2.6c-0.3-0.8-0.6,0.4-0.1-0.5c1.4-2.4,3.7-4.6,5.5-6.7
			c-2,0-4,0-6,0c2,2.5,4.1,5.1,6.1,7.6c3.4,4.3,9.4-1.8,6-6c-2-2.5-4.1-5.1-6.1-7.6c-1.3-1.7-4.7-1.6-6,0c-4,5-9.1,9.4-7.5,16.4
			c1.1,4.9,5.5,8.9,10.7,7.6c5.7-1.4,8.3-7.2,9.9-12.3C281.4,163,273.2,160.8,271.5,166z"/>
	</g>
</g>
<g>
	<path class="st1" d="M257,291.7c-0.5-14.9-1.5-29.9-3.1-44.7c-6.4,12.2-11,25.4-13.6,38.9l6.2,16.7L257,291.7z"/>
	<g>
		<path d="M260.5,291.7c-0.5-14.9-1.5-29.9-3.1-44.7c-0.3-3.1-4.8-5.2-6.5-1.8c-3.4,6.7-6.4,13.6-8.9,20.7c-1.4,4-2.6,8-3.6,12.1
			c-0.7,2.7-2.1,6.2-1.5,8.9c1,5.6,4.2,11.3,6.2,16.6c0.9,2.4,3.9,3.6,5.8,1.5c3.5-3.6,7-7.2,10.5-10.8c3.1-3.2-1.8-8.2-4.9-4.9
			c-3.5,3.6-7,7.2-10.5,10.8c1.9,0.5,3.9,1,5.8,1.5c-0.9-2.3-1.7-4.6-2.6-6.9c-1-2.7-3.1-6.2-3.4-9.1c-0.1-1.2,0.9-4.1,1.3-5.7
			c0.9-3.5,1.9-7,3-10.4c2.4-7.1,5.3-14,8.7-20.7c-2.2-0.6-4.3-1.2-6.5-1.8c1.5,14.9,2.6,29.8,3.1,44.7
			C253.7,296.2,260.7,296.2,260.5,291.7z"/>
	</g>
</g>
<g>
	<g>
		<path d="M199.7,241.3c-2.8,13.6-5.5,27.3-8.3,40.9c-2.1,10.4-4.5,21.8,1,31.6c5.3,9.3,15.2,11,25,10.5c11.1-0.6,25.9-1,23.8,14.6
			c-0.6,4.4,6.1,6.3,6.7,1.9c1.3-9.5-1.4-18.7-11.1-22.3c-9.9-3.6-20.3,0.9-30.2-1.8c-14.3-4-10.7-22-8.5-32.7
			c2.8-13.6,5.5-27.3,8.3-40.9C207.3,238.8,200.6,236.9,199.7,241.3L199.7,241.3z"/>
	</g>
</g>
<g>
	<g>
		<path d="M321.9,232.1c1.1,13.7-1.2,27.1-4.2,40.4c-2.5,11.3-4.3,23.7-15.8,29.2c-8.7,4.1-18.4,5.3-25.6,12.2
			c-7,6.7-10.6,16.4-9.9,26c0.3,4.5,7.3,4.5,7,0c-0.8-11,4.9-21,15-25.7c8.8-4.1,19.2-5.3,26-13c7-8,8.6-19.8,10.8-29.8
			c2.8-13,4.9-26.1,3.8-39.4C328.5,227.7,321.5,227.6,321.9,232.1L321.9,232.1z"/>
	</g>
</g>
<g>
	<g>
		<path d="M270.9,343.4c4.5,0,4.5-7,0-7C266.4,336.4,266.4,343.4,270.9,343.4L270.9,343.4z"/>
	</g>
</g>
</svg>
